<?xml version="1.0" encoding="UTF-8" standalone="no"?>
<!-- Created with Inkscape (http://www.inkscape.org/) -->

<svg
   xmlns:dc="http://purl.org/dc/elements/1.1/"
   xmlns:cc="http://creativecommons.org/ns#"
   xmlns:rdf="http://www.w3.org/1999/02/22-rdf-syntax-ns#"
   xmlns:svg="http://www.w3.org/2000/svg"
   xmlns="http://www.w3.org/2000/svg"
   xmlns:sodipodi="http://sodipodi.sourceforge.net/DTD/sodipodi-0.dtd"
   xmlns:inkscape="http://www.inkscape.org/namespaces/inkscape"
   width="16"
   height="16"
   id="svg3621"
   version="1.1"
   inkscape:version="0.48.4 r9939"
   sodipodi:docname="cat-face.svg"
   inkscape:export-filename="favicon.png"
   inkscape:export-xdpi="90"
   inkscape:export-ydpi="90">
  <defs
     id="defs3623" />
  <sodipodi:namedview
     inkscape:document-units="px"
     pagecolor="#ffffff"
     bordercolor="#666666"
     borderopacity="1.0"
     inkscape:pageopacity="0.0"
     inkscape:pageshadow="2"
     inkscape:zoom="33.278213"
     inkscape:cx="8"
     inkscape:cy="8"
     inkscape:current-layer="layer1"
     id="namedview3625"
     showgrid="false"
     inkscape:window-width="1194"
     inkscape:window-height="904"
     inkscape:window-x="136"
     inkscape:window-y="62"
     inkscape:window-maximized="0"
     units="px" />
  <metadata
     id="metadata3627">
    <rdf:RDF>
      <cc:Work
         rdf:about="">
        <dc:format>image/svg+xml</dc:format>
        <dc:type
           rdf:resource="http://purl.org/dc/dcmitype/StillImage" />
        <dc:title />
      </cc:Work>
    </rdf:RDF>
  </metadata>
  <g
     inkscape:label="Layer 1"
     inkscape:groupmode="layer"
     id="layer1"
     transform="translate(-30.319511,-974.94435)">
    <rect
       ry="0"
       rx="2.3585646"
       y="975.45483"
       x="31.829969"
       height="13.979084"
       width="13.979084"
       id="rect3768"
       style="fill:#ffffff;stroke:#000000;stroke-width:1.02091621999999993;stroke-linecap:round;stroke-miterlimit:4;stroke-opacity:1;stroke-dasharray:none;stroke-dashoffset:0;fill-opacity:1"
       inkscape:export-filename="./rect3768.png"
       inkscape:export-xdpi="90"
       inkscape:export-ydpi="90" />
    <g
       id="g3777"
       transform="matrix(0.9012431,0,0,1,3.8336945,-20)"
       inkscape:export-filename="./g3777.png"
       inkscape:export-xdpi="90"
       inkscape:export-ydpi="90">
      <path
         id="path3478"
         d="m 33.2337,996.9572 0.553394,3.0691 c -0.428587,0.7546 -0.671978,1.6166 -0.671978,2.5317 0,2.9672 2.553538,5.3735 5.701926,5.3735 3.148387,0 5.706866,-2.4063 5.706865,-5.3735 0,-0.8865 -0.23352,-1.722 -0.637389,-2.4593 l 0.553393,-3.064 -2.331686,2.0316 c -0.929609,-0.6198 -2.0667,-1.0869 -3.291183,-1.0869 -1.188816,0 -2.292207,0.4429 -3.206245,1.03 z"
         style="fill:#ffffff;fill-opacity:1;fill-rule:nonzero;stroke:#000000;stroke-width:1.20000005;stroke-linecap:round;stroke-linejoin:round;stroke-miterlimit:4;stroke-opacity:1;stroke-dasharray:none;stroke-dashoffset:0;marker:none;visibility:visible;display:inline;overflow:visible;enable-background:accumulate"
         inkscape:connector-curvature="0"
         sodipodi:nodetypes="ccssscccscc" />
      <path
         transform="matrix(0.21990324,0.10346078,-0.09893946,0.22995235,25.775708,983.12335)"
         d="m 76,48 c 0,2.209139 -1.790861,4 -4,4 -2.209139,0 -4,-1.790861 -4,-4 0,-2.209139 1.790861,-4 4,-4 2.209139,0 4,1.790861 4,4 z"
         sodipodi:ry="4"
         sodipodi:rx="4"
         sodipodi:cy="48"
         sodipodi:cx="72"
         id="path3183"
         style="fill:#000000;fill-opacity:1;fill-rule:nonzero;stroke:#000000;stroke-width:4.05541468;stroke-miterlimit:4;stroke-opacity:1;stroke-dasharray:none;marker:none;visibility:visible;display:inline;overflow:visible;enable-background:accumulate"
         sodipodi:type="arc" />
      <path
         sodipodi:type="arc"
         style="fill:#ffffff;fill-opacity:1;fill-rule:nonzero;stroke:none;stroke-width:10.23826027;marker:none;visibility:visible;display:inline;overflow:visible;enable-background:accumulate"
         id="path3185"
         sodipodi:cx="72"
         sodipodi:cy="48"
         sodipodi:rx="4"
         sodipodi:ry="4"
         d="m 76,48 c 0,2.209139 -1.790861,4 -4,4 -2.209139,0 -4,-1.790861 -4,-4 0,-2.209139 1.790861,-4 4,-4 2.209139,0 4,1.790861 4,4 z"
         transform="matrix(0.13341952,0.06277164,-0.06002847,0.13951651,30.214087,990.5587)" />
      <path
         sodipodi:type="arc"
         style="fill:#000000;fill-opacity:1;fill-rule:nonzero;stroke:#000000;stroke-width:4.05541468;stroke-miterlimit:4;stroke-opacity:1;stroke-dasharray:none;marker:none;visibility:visible;display:inline;overflow:visible;enable-background:accumulate"
         id="path3195"
         sodipodi:cx="72"
         sodipodi:cy="48"
         sodipodi:rx="4"
         sodipodi:ry="4"
         d="m 76,48 c 0,2.209139 -1.790861,4 -4,4 -2.209139,0 -4,-1.790861 -4,-4 0,-2.209139 1.790861,-4 4,-4 2.209139,0 4,1.790861 4,4 z"
         transform="matrix(0.21990324,0.10346078,-0.09893946,0.22995235,29.73532,983.11489)" />
      <path
         transform="matrix(0.13069287,0.0614888,-0.05880168,0.13666525,34.323095,990.76696)"
         d="m 76,48 c 0,2.209139 -1.790861,4 -4,4 -2.209139,0 -4,-1.790861 -4,-4 0,-2.209139 1.790861,-4 4,-4 2.209139,0 4,1.790861 4,4 z"
         sodipodi:ry="4"
         sodipodi:rx="4"
         sodipodi:cy="48"
         sodipodi:cx="72"
         id="path3197"
         style="fill:#ffffff;fill-opacity:1;fill-rule:nonzero;stroke:none;stroke-width:10.23826027;marker:none;visibility:visible;display:inline;overflow:visible;enable-background:accumulate"
         sodipodi:type="arc" />
      <path
         sodipodi:nodetypes="csccsc"
         id="path3588"
         d="m 35.26886,1004.2143 c 0.08166,0.6466 1.337165,1.7089 2.152971,1.7228 1.084282,0.019 1.971707,-1.2166 2.23245,-2.0812 -0.596451,-0.09 -1.192902,-0.085 -1.789353,-0.028 0.260743,0.823 1.181381,2.0937 2.0867,2.109 0.868457,0.015 2.276155,-0.9822 2.374152,-1.7226"
         style="fill:none;stroke:#000000;stroke-width:1;stroke-linecap:round;stroke-linejoin:round;stroke-miterlimit:4;stroke-opacity:1;stroke-dasharray:none"
         inkscape:connector-curvature="0" />
    </g>
    <rect
       style="fill:none;stroke:#000000;stroke-width:1.02091622;stroke-linecap:round;stroke-miterlimit:4;stroke-opacity:1;stroke-dasharray:none;stroke-dashoffset:0"
       id="rect2994"
       width="13.979084"
       height="13.979084"
       x="31.829969"
       y="975.45483"
       rx="2.3585646"
       ry="0" />
    <path
       style="fill:#666666;stroke:#4d4d4d;stroke-width:1.03669046999999992px;stroke-linecap:butt;stroke-linejoin:miter;stroke-opacity:1"
       d="m 32.356875,990.47689 c 12.925272,0 12.925272,0 12.925272,0"
       id="path3764"
       inkscape:connector-curvature="0" />
    <path
       inkscape:connector-curvature="0"
       id="path3766"
       d="m 30.837856,988.90702 c 0,-12.92528 0,-12.92528 0,-12.92528"
       style="fill:#666666;stroke:#4d4d4d;stroke-width:1.03669046999999992px;stroke-linecap:butt;stroke-linejoin:miter;stroke-opacity:1" />
  </g>
</svg>
